<?xml version="1.0" encoding="UTF-8"?>
<svg id="Ebene_1" xmlns="http://www.w3.org/2000/svg" viewBox="0 0 516.73 189.73">
  <defs>
    <style>
      .cls-1 {
        fill: none;
        stroke: #75b72b;
        stroke-miterlimit: 10;
        stroke-width: 2px;
      }
    </style>
  </defs>
  <path class="cls-1" d="M180.17,51.54c1-2.14,1.28-7.38-3.1-9.22s-17.18-.42-17.18-.42c-6.83,2.41-3.64,13.67-.31,13.74s47.12,1.05,49.21,1.15c3.94.28,11.61,12.04.35,13.1-11.64-1.62-52.98-3.56-59.25-1.43-6.27,2.13-46.08,25.2-46.08,25.2C37.67,140.39.62,111.23.62,111.23"/>
  <path class="cls-1" d="M516.03,45.1s-32.5,31.87-73.7,29.72-67.34-3.83-67.34-3.83l-13.81,1.75s-6.66-2.21-6.38,17.52.43,90.6.43,90.6c0,0,.23,7.57-8.65,7.83s-197.08-1.39-197.08-1.39c0,0-9.62.51-9.39-10.84s0-119.38,0-119.38c0,0,1.73-23.19,4.93-26.89s75.52,2.48,78.73-.58,4.69-14.75,1.24-15.94c-7.02-2.43-22.05-2.56-25.48-.14s-7.91,7.63-3.81,15.49c0,0,2.1,5.85,27.14,4.52,0,0,8.53.71,11.97-8.42,3.44-9.13,10.25-20.05,12.79-21.73s20.08-3.43,34.95-1.61c0,0,5.43.24,8.52,8.31,3.1,8.07,11.19,16.57,11.19,16.57,0,0,22.78,2.57,34.29,1.67s7.48-15,1.76-18.06c-7.89-2.13-16.31-1.58-22.66-.49-5.24,1.46-6.57,14.16-1.67,15.56,4.45,1.27,33.54-.55,33.54-.55,0,0,6.1-1.18,6.37,8.5.26,9.68.12,33.05.12,33.05,0,0,.14,7.28-5.04,7.41s-34.23.45-34.23.45c0,0-5.85.42-6.05-7.84-.2-8.26-.25-11.59-.33-15.29s-4.27-8.5-15.74-8.54c-11.47-.04-56.91,1.21-56.91,1.21,0,0-12.46-.47-14.84,13.04s-6.82,48.36-6.82,48.36c0,0,.99,2.9,2.4-.44s4.42-19,9.02-25.98c4.6-6.98,11.88-15.19,25.87-19.47s26.94-2.27,26.94-2.27c0,0,13.32-.21,23.84,20.49,0,0,8.32,11.97,10.04,27.48,2.27,20.56.9,29.69-.62,37.06s-8.59,34.95-30.46,39.7c-21.44,4.66-29.48-1.06-29.48-1.06,0,0-26.54-7.08-32.27-50.51,0,0-1.97-59.71,43.83-60.47,45.8-.76,41.01,67.23,40.28,70.47s-10.32,36.26-26.41,36.31"/>
</svg>