<?xml version="1.0" encoding="UTF-8"?>
<svg id="Ebene_1" xmlns="http://www.w3.org/2000/svg" viewBox="0 0 547.43 199.33">
  <defs>
    <style>
      .cls-1 {
        fill: none;
        stroke: #75b72b;
        stroke-miterlimit: 10;
        stroke-width: 2px;
      }
    </style>
  </defs>
  <path class="cls-1" d="M.63,186s10.77-8.63,19.49-9.06c8.71-.43,20.93,5.54,28.58,5.04s22.79-5.61,26.9-3.5,8.92,3.31,15.45,5.72c6.53,2.42,16.98.69,16.98.69,0,0,8.85.53.55,3.43s-2.9-4.51-2.9-4.51l33.13-55.67c23.3,1.04,33.79,11.14,33.79,11.14,0,0-13.63,54.92-19.24,50.77s10.04-44.44,13.99-55.46c3.95-11.02,10.8-18.26,10.8-18.26,9.75-3.45,19.3-13.03,24.71-17.96s-.91-4.48-.91-4.48l-18.24.21,4.32-5.42,31.95-5.11-8.97-71.31c-13.01-2.14-34.67,3.13-34.67,3.13-.68,10.3,6.96,52.16,10.77,76.46.21,1.34,1.48,2.24,2.81,2.01l33.16-5.77c1.28-.22,2.21-1.32,2.21-2.62.07-17.61-10.17-67.93-12.16-77.56-.2-.94-1.02-1.64-1.98-1.67-22.25-.84-32.01,1.89-36.26,4.26-2.07,1.15-3.19,3.47-2.81,5.81,2.29,14.19,12.57,79.1,8.54,74.92-4.52-4.69-5.63-19.31-5.63-19.31l7.03-8.5s5.93-14.28.7-14.99-14.25,10.32-17.13,16.1-4.14,9.94-4.3,17.88-4.12,17.34-4.12,17.34l-14.58,24.76c13.36,1.24,31.61,7.71,31.61,7.71l7.2-14.28s7.39-8.5,7.39-6.87-4.32,8.68-4.32,8.68l24.83,54.67s122.37-37.77,119.47-39.75c-2.89-1.98-39.17,8.73-39.17,8.73l-44.25-109.53s-26.89,6.91-23.82,8.17,25.45-5.46,25.45-5.46l76.88-29.38,41.03,103.77c.1.25-.23.46-.41.25l-10.31-11.43c-5.96,1.09-25.96,22.98-25.96,22.98l27.72,56.11c1.99-.05,3.87-.64,5.58-1.5,5.02-2.52,8.43-7.38,9.61-12.87,1.22-5.71,3.7-13.89,7.79-13.31,6.23.89,27.75,17.47,34.25,16.01,5.71-1.28,11.37-30.99,12.66-38.19.17-.97.85-1.77,1.78-2.09h0c2.9-1.03,5.08-3.52,5.61-6.55.92-5.3,3.01-11.26,3.69-8.28.49,2.14.4,4.18.22,5.6-.15,1.15-1.08,2.04-2.24,2.11-22.15,1.41-44.38-3.91-50.71-6-6.5-2.16-7.61-12.27-7.61-12.27l4.17-95.35c8.48-2,56.34,2.79,56.34,2.79l-3.46,90.29-60.85-.91,1.28-95.6c8.84-4.89,68.26,1.87,68.26,1.87,1.83,32.98-2.48,87.91-3.43,99.49-.1,1.23-1.14,2.18-2.37,2.17l-60.99-.4c-.83,0-1.36.87-.98,1.61l27.07,51.26c.2.37-.31.71-.58.38l-48.45-59.03-12.85-14.79c-6.8-16.6-20.72-27.95-20.72-27.95-20.13,4.1-17.76,15.83-17.76,15.83-3.54-11.28-16.8-2.77-16.8-2.77,0,0,2.16-1.54,2.7-2.71s1.7-7.68,1.7-7.68l26.09-3.11s3.52-.46,2.62-1.36c-5.18-5.16-28.9-3.92-28.9-3.92l-5.14,4.52c-5.86,2.54-9.72,18.89-9.72,18.89l-11.93-9.17c-.13-.1-.03-.3.12-.25,6.78,2.13,56.35,17.72,59.68,18.51,3.57.85,3.34,1.12,3.34,1.12,0,0,.73,4.2-.53,5.28s-4.06.41-4.06.41c-8.04-1.07-34.73-10.73-34.73-10.73,0,0-14.74-15.32-15.27-7.2s13.08,20.07,13.08,20.07l39.64,11.61c3.52-.48,10.79,11.83,10.79,11.83,0,0,19.58,45.54,21.62,52.44,2.04,6.9,2.4,9.98,2.4,9.98l6.54,10.93s-16.59-.28-15.5,1.82,2.75,2.03,4.07,2.74,9.79,1.41,12.77,1.26-.99-5.77-.99-5.77l50.99.83c.4.16,1.45-.5,1.9-.81,1.14-.78,1.69-2.23,1.35-3.57-1.03-4.02-5.36-7.38-7.91-9.06-.75-.49-1.7.26-1.39,1.1,1.79,4.83,7.41,8.8,9.11,10.56,1.97,2.03,1.23,3.7,6.29,3.6s22.22-12.05,65.22-1.38c43,10.67,49.31,7.27,56.53,2.97"/>
</svg>