<?xml version="1.0" encoding="UTF-8"?>
<svg id="Ebene_1" xmlns="http://www.w3.org/2000/svg" viewBox="0 0 544.79 240.13">
  <defs>
    <style>
      .cls-1 {
        fill: none;
        stroke: #75b72b;
        stroke-miterlimit: 10;
        stroke-width: 2px;
      }
    </style>
  </defs>
  <path class="cls-1" d="M.04,171.67c43.17,1.59,100.57,34.13,154.01,34.84,53.45.71,154.96-48.38,156.11-45.41,1.15,2.97,123.22-42.72,123.22-42.72l27.89-13.92s1.57-1.42,7.16-1.31,20.96.85,20.96.85c0,0,3.28-.45,6.15-2.2s38.3-17.78,38.3-17.78l10.85-.98-10.86.48s-12.3-2.19-31.13-.98-32.21,12.3-34.3,12.53-22.61,1.37-29.72,5.67,24.49-2.3,27.75-4.64,11.18.61,11.18.61l-1.85,2.92-1.22,4.51s-18.33,14.36-37.21,17.56c0,0-3.1.37-4.2-2.55l-.22-11.64s-.44-2.39-4.31-1.33l-180.63,67.23s-13.57,5.91-.45,3.1c13.12-2.81,44.29-11.3,44.29-11.3,0,0,5.78-.29,10.19,1.03s59.37,28.86,96.39,64.69c0,0,9.83,7.68,2.9-1.78-6.94-9.46-115.15-145.7-115.15-145.7,0,0-8.02-2.53-19.2-11.12,0,0-1.75-1.04-3.2-8.32s-13.41-39.14-20.77-42.07c0,0-32.08-10.38-33.16-19.13,0,0,6.9,7.07,6.12,32.61,0,0,1.48,17.13,39.66,34.32,0,0,6.31,3.62,7.97,7.45s1.96,13.93,1.96,13.93c0,0-2.54-.76-8.43-19.41,0,0-2.91-7.27-2.19-11.93s27.93,16.43,27.6,20.69c0,0,2.06,4.22,1.16,6.1s-13.28,8.99-13.28,8.99c0,0-3.42,2.18.38,7.17s92.94,110.41,101.79,114.79l25.1,21.23c2.13,2.12,27.28-5.14,65.33-13.48,38.85-8.51,69.56,19.16,81.11,7.57"/>
</svg>