<?xml version="1.0" encoding="UTF-8"?>
<svg id="Ebene_1" xmlns="http://www.w3.org/2000/svg" viewBox="0 0 523.87 499.42">
  <defs>
    <style>
      .cls-1 {
        fill: none;
        stroke: #75b72b;
        stroke-miterlimit: 10;
        stroke-width: 2px;
      }
    </style>
  </defs>
  <path id="line-1" class="cls-1" d="M140.34,411.26l-68.79,7.02L20.98,220.59s-2.84-11.56,10.57-11.49c13.41.07,226.71,0,226.71,0,0,0,8.84-.09,12.75,16.42,3.91,16.51,38.67,162.43,38.67,162.43l11.11,6.52s4.77,1.65,3.38-6.02c-1.39-7.68-45.89-189.09-45.89-189.09,0,0,.08-9.09-9.82-9.89-9.9-.8-257.41-4.05-257.41-4.05,0,0-12.41.24-9.65,17.58s56.85,247.65,56.85,247.65l186.84,47.75s9.88-1.41,3.14-9.29c-6.74-7.88-26.06-15.55-26.06-15.55l-156.07-37.17s-3.29-1.97,3.46-2.5c6.75-.53,254.86-30.59,254.86-30.59v5.49l-212.11,26.31s-5.89,1.46.15,2.84,69.6,16.37,69.6,16.37l212.71-32.48s6.35-2.44,1.36-4.05c-4.99-1.61-40.73-8.49-53.51-8.24-12.78.25,4.26,5.52,4.26,5.52l70.57,19.93s12.28,4.73-4.14,2.42c-16.42-2.31-44.5-7.48-44.5-7.48l-73.47,10.55s-4.86,2.13-.26,4.04c4.61,1.91,33.82,10.38,33.82,10.38,0,0,71.57-13.25,74.03-10.01s-140.53,29.5-140.53,29.5c0,0-27.34,9.52-24.48,16.2s30.12,5.41,30.12,5.41l249.28-50.11s6.52-2.7,5.41-6.89-10.35-2.92-10.35-2.92l-188.65,34.29s-21.71,4.11-24.28,1.34c-2.58-2.78,207.55-39.14,207.55-39.14,0,0,21.53-4.96-1.47-6.99s-173.17-21.63-173.17-21.63l-21.47-10.54-149.11,16.03s-65.15-17.31-60.16-72.57c1.87-20.68,12.59-34.92,25.28-44.63,21.22-16.25,47.93-19.86,47.93-19.86,0,0,53.78-4.21,53.5,42.99-.27,47.19-49.81,42.1-49.81,42.1,0,0-56.87-12.63-51.11-63.19,5.76-50.56,204.7-85.47,217.42-127.08,3.54-11.59,10.89-56.72,10.89-56.72,0,0,3.53-8.6,2.89,0-.64,8.6-2.48,38.86-2.48,38.86l26.05-25.61-25.6-24.95L491.36,16.87l-126.82,83.8,51.91,44.87L512.6,1.64l-229.98,60.89,50.19,25.09L496.91,8.51l-156.97,82.49,4.02,61.34"/>
</svg>