<?xml version="1.0" encoding="UTF-8"?>
<svg id="Ebene_1" xmlns="http://www.w3.org/2000/svg" viewBox="0 0 523.23 273.11">
  <defs>
    <style>
      .cls-1 {
        fill: none;
        stroke: #75b72b;
        stroke-miterlimit: 10;
        stroke-width: 2px;
      }
    </style>
  </defs>
  <path class="cls-1" d="M.83,262.87s13.71-20.41,31.88-20.89,27.68,4.83,27.68,4.83c0,0,48.41,23.77,81.16,24.63,32.75.86,54.27,1.07,87.1-.48,32.83-1.55,84.18-5.21,84.18-5.21l82.52-5.63,16.79-1.77s1.41.83,1.74-2.83-.35-9.31-.35-9.31c0,0,1.33-1.42-4.58-4.81s-82.86-50.14-82.86-50.14l-224.36,8.18s25.98,31.87,43.28,38.27l219.17-12.78s2.9-.22-.6-3.04-41.1-27.97-41.1-27.97l-236.84,7.27s-8.1-4.31-8.45-16.39c-.35-12.08-2.25-174.69-2.25-174.69,0,0,3.09-8.87,9.96-9.1s225.18,3.38,225.18,3.38c0,0,7.76,1.09,8,10.18s-1.33,22.89-1.33,22.89c0,0-4.19,6.66-4.28-.37-.1-7.02-.9-16.45-.9-16.45,0,0,.41-3.95-6.57-4.19s-211.41-.24-211.41-.24l.62,169.1,55.97,3.34-60.84.44-1.85-174.64s.44-3.88,4.2-4,217.53,1.18,217.53,1.18c0,0,9.43,4.97,9.22,14.06-.21,9.09-.74,22.83-.74,22.83l-149.15,1.69s-9.31.24-9.62,12.76c-.31,12.52-.81,110.93-.81,110.93,0,0-.43,7.65,10.76,8.29s194.47-5.54,194.47-5.54c0,0,6.97-5,7.19-10.21.21-5.21-.41-108.93-.41-108.93,0,0,.55-5.1-8.87-5.08s-191.04,4.31-191.04,4.31l-2.13,116.69,194.58-4.99,1.17-92.97-190.27.77.94,93.97,146.82-3.8s2.57,12.96.36,18.51l-229.04,10.14s-3.88,1-4.42,4.99-.75,13.41-.75,13.41l67.91,56.07,252.96-15.61s-1.37-21.94,18.25-22.97c19.61-1.03,53.33,15.87,67.62,15.62,14.29-.25,27.36-9.02,28.01-17.33"/>
</svg>