<?xml version="1.0" encoding="UTF-8"?>
<svg id="Ebene_1" xmlns="http://www.w3.org/2000/svg" viewBox="0 0 523.57 428.7">
  <defs>
    <style>
      .cls-1 {
        fill: none;
        stroke: #75b72b;
        stroke-miterlimit: 10;
        stroke-width: 2px;
      }
    </style>
  </defs>
  <path class="cls-1" d="M0,427.7h244.09s-9.08-2.67-11.83-19.9c-2.75-17.24-27.51-169.19-27.51-169.19,0,0-8.32-12-53.11-23.42,0,0-42.82-14.29-74.57-6.98-31.75,7.31-46.66,41.67-47.68,67.53-1.01,25.86,13.26,62.89,54.55,64.64l.68-43.41s1.06-2.12-1.52-2.11c-2.57,0-13.97-.4-13.97-.4,0,0-1.33-.66-1.36-2.1s.07-15.95.07-15.95c0,0-.47-2.76,3.06-2.8s13.55.06,13.55.06c0,0,1.52.32,1.54-1.87s-.04-18.18-.04-18.18c0,0,4.45-21.17,20.94-21.23s20.46,1.36,20.46,1.36l.37,15.88s-.22,1.85-2.11,1.86-10.7.09-10.7.09c0,0-8.24,1-8.15,9.84.09,8.85.09,9.49.09,9.49,0,0-1.09,3.29,2.92,3.25,4.01-.04,14.44-.1,14.44-.1,0,0,2.23-.46,2.39,3.21s.1,11.72.1,11.72c0,0-.26,5.33-3.88,5.49s-13.91.25-13.91.25c0,0-1.29-.53-1.32,2.04s.41,43.44.41,43.44c0,0,.42,2.12,2.54,1.39,2.12-.72,55.51-14.74,55.19-66.47,0,0,3.44-46.96-28.56-54.51,0,0-.46-1.7,1.47-1.7,1.93,0,45.29,16.71,45.29,16.71,0,0,21.56,7.45,19.72-9.9s-19.05-132.45-17.15-145.95c1.91-13.5,17.11-12.39,17.11-12.39l103.56,3s12.71,5.42,14.66,16.54l1.01,7.18s29.3,22.98,72.88,36.63c0,0,53.12,20.44,76.1-3.42,0,0,28.9-29.79,29.2-53.38.3-23.59-14.08-72.68-65-72.94s-69.68,43.11-70,56.61c-.32,13.5-9.33,51.85,32.99,59.27l-.13-8.96s-22.61-20.04-16.64-47.04,28.74-41.45,51.77-40.69,42.22,13.88,42.23,21.59c0,0-13.76,36.92-33.51,45.44,0,0-13.4-10.53-18.74-12.33l-18.3,13.19s-4.36,2.5-4.03-1.47c.33-3.97,10.61-28.26,20.08-31,0,0,10.85,7.52,21.29,11.53l19.83-14.38s2.38-.51,1.42,2.04c-.96,2.55-6.72,15.38-6.72,15.38,0,0,11.49-13.01,16.68-26.97,0,0,2.72-3.29,4.54.9s7.23,18.25,4.82,30.5c0,0,.16,28.36-26.82,39.01,0,0-17.39,10.41-36.57,3.29,0,0-8.78,6.76-15.87,6.27-7.09-.5-22.82-10.68-22.82-10.68l14.15,14.27s-63.73-26.79-69.36-35.21c0,0-1.31-1.25-.85,2.21.46,3.46,39.5,281.74,39.5,281.74,0,0,.8,4.54,4.66,4.76,3.86.22,65.06-.23,81.84-4.95,16.78-4.72,70.66-8.11,71.12-88.08,0,0-14.55-53.72-66.42-52.88-51.87.84-68.58,50.48-68.58,50.48l.18,14.52s15.33,34,27.89,38.67c0,0,5,5.59,11.05,6.18,6.05.59,53.69.97,53.69.97,0,0,16.33-1.54,17.21-19.99.88-18.45.07-46.13.07-46.13,0,0-1.85-17.84-16.21-18.27-14.37-.43-26.82-.74-26.82-.74l-24.03,8.28s-8.84,2.51-9.51,9.39-1.21,44.92-1.21,44.92c0,0,.78,13.61,12.5,14.27,11.72.66,46.35.37,46.35.37,0,0,12.09-4.48,12-16.43-.1-11.95-14.64-29.09-14.64-29.09l-11.74-10.11s-9.91-2.78-17.32.26c0,0-14.44,4.64-13.65,19.15,0,0-.13,9.81,3.94,12.54.13.09.26.16.4.24,4.47,2.34,14.07,5.65,22.16,2.61,8.09-3.04,9.43-12.57,9.43-12.57,0,0,.43-15.65-13.34-15.63-13.76.02-14.8,11.44-14.8,11.44,0,0-1.34,10.29,4.56,13.15,0,0,.91,1.36-1.36.23s-6.81-4.9-6.81-4.9c0,0-1.44-1.06-1.36.76s.93,14.21,9.78,14.88c8.85.67,20.04,2.31,26.53-6.4,0,0,4.76-4.02,4.43-19.59,0,0,.3-1.29,1.13,0,0,0,6,15.19,8.35,19.8s2.63-8.1,2.63-8.1l.1-30.32s.82-7.64-5.76-6.27c0,0-13.69.7-7.32,11.36,0,0,11.27,2.55,6.55-14.15,0,0-.46-1.89-6.66-1.95s-35.77.29-35.77.29l27.13-7.76-34.41-.85s-18.75,3.66-18.81,13.79c-.06,10.13-1.73,50.89-1.73,50.89,0,0,1.07,6.35,2.43,8.31s-2.5-1.36-2.5-1.36c0,0-19.55-22.5-21.39-40.19,0,0-1.14-2.04-1.59-.15s-2.24,19.51-2.24,19.51c0,0,8,52.19,55.31,59.48,0,0,2.5.9.12,1.36s-48.53,9.38-72.02,1.71c0,0-6.33,11.47-12.55,26.22,0,0,.46,2.61-2.72,3.29-3.17.69-92.49,23.38-92.49,23.38,0,0-7.86,2.74-9.38-4.82s-52.59-334.14-52.59-334.14c0,0,2.41-8.47,8.45-9.39s97.4,2.25,97.4,2.25c0,0,7.87,3.62,9.7,14.5,1.83,10.89,41.02,284.86,41.02,284.86,0,0,3.04,10.88-8.44,14.53-11.49,3.65-91.61,21.63-91.61,21.63,0,0-.91.91-.6,3.03s2.5,4.76,2.5,4.76c0,0,.43.28,2.09,0s87.38-23.57,87.38-23.57"/>
</svg>